<svg xmlns="http://www.w3.org/2000/svg" xmlns:xlink="http://www.w3.org/1999/xlink" xmlns:lucid="lucid" width="880" height="847.29"><g transform="translate(-100 -225.09724420379155)" lucid:page-tab-id="0_0"><path d="M0 0h1760v1360H0z" fill="#fff"/><path d="M617.54 980c28.52 0 51.85 16 51.85 35.7 0 19.7-23.34 35.7-51.86 35.7H462c-28.53 0-51.86-16-51.86-35.7 0-19.7 23.33-35.7 51.85-35.7z" stroke="#333" stroke-width="2" fill="#eb6b6b"/><path d="M440 448c0-4.42 3.58-8 8-8h183c4.43 0 8 3.58 8 8v114.07c0 4.42-3.57 8-8 8H448c-4.42 0-8-3.58-8-8z" stroke="#000" stroke-opacity="0" fill="#c54242"/><use xlink:href="#a" transform="matrix(1,0,0,1,444.8,444.8) translate(33.6388888888889 64.575)"/><use xlink:href="#b" transform="matrix(1,0,0,1,444.8,444.8) translate(105.69444444444446 64.575)"/><path d="M440 271.25c0-4.4 3.58-8 8-8h183.53c4.42 0 8 3.6 8 8v80.02c0 4.42-3.58 8-8 8H448c-4.42 0-8-3.58-8-8z" stroke="#000" stroke-opacity="0" fill="#eb6b6b"/><use xlink:href="#c" transform="matrix(1,0,0,1,444.79999999999995,268.05403356961125) translate(59.345679012345684 47.328472222222224)"/><use xlink:href="#d" transform="matrix(1,0,0,1,444.79999999999995,268.05403356961125) translate(110.90123456790124 47.328472222222224)"/><path d="M440 828c0-4.42 3.58-8 8-8h193.76c4.42 0 8 3.58 8 8v84c0 4.42-3.58 8-8 8H448c-4.42 0-8-3.58-8-8z" stroke="#000" stroke-opacity="0" fill="#ffc2c2"/><use xlink:href="#e" transform="matrix(1,0,0,1,444.8,824.8) translate(43.339506172839506 48.703472222222224)"/><use xlink:href="#f" transform="matrix(1,0,0,1,444.8,824.8) translate(106.45061728395062 48.703472222222224)"/><path d="M429.76 631.25c0-4.4 3.6-8 8-8h204c4.42 0 8 3.6 8 8v114.07c0 4.42-3.58 8-8 8h-204c-4.4 0-8-3.58-8-8z" stroke="#000" stroke-opacity="0" fill="#c54242"/><use xlink:href="#g" transform="matrix(1,0,0,1,441.76471281890645,635.2540335696112) translate(53.599999999999994 47.8375)"/><use xlink:href="#h" transform="matrix(1,0,0,1,441.76471281890645,635.2540335696112) translate(27.599999999999994 69.4375)"/><use xlink:href="#i" transform="matrix(1,0,0,1,441.76471281890645,635.2540335696112) translate(92.45 69.4375)"/><use xlink:href="#j" transform="matrix(1,0,0,1,441.76471281890645,635.2540335696112) translate(117.45 69.4375)"/><path d="M539.76 359.77v39.6c0 .15-.1.27-.26.27-.14 0-.25.1-.25.26v23.72" stroke="#333" fill="none"/><path d="M540.26 359.8h-1v-.53h1" fill="#333"/><path d="M539.25 438.38l-4.64-14.26h9.28z" stroke="#333" fill="#333"/><path d="M360.5 508.3h37.87c.9 0 1.63-.74 1.63-1.64 0-.9.73-1.63 1.63-1.63h22" stroke="#333" fill="none"/><path d="M360.5 508.8h-.5v-1h.5" fill="#333"/><path d="M438.38 505.03l-14.26 4.64v-9.27z" stroke="#333" fill="#333"/><path d="M120 446.1c0-4.43 3.58-8 8-8h264c4.42 0 8 3.57 8 8v129.4c0 4.43-3.58 8-8 8H128c-4.42 0-8-3.57-8-8z" stroke="#000" stroke-opacity="0" fill="#fff" fill-opacity="0"/><use xlink:href="#k" transform="matrix(1,0,0,1,125,443.0859023612279) translate(49.19598765432106 24.67777777777777)"/><use xlink:href="#l" transform="matrix(1,0,0,1,125,443.0859023612279) translate(101.3243827160494 48.94444444444442)"/><use xlink:href="#m" transform="matrix(1,0,0,1,125,443.0859023612279) translate(111.43549382716051 73.21111111111108)"/><use xlink:href="#n" transform="matrix(1,0,0,1,125,443.0859023612279) translate(99.10555555555558 97.47777777777773)"/><use xlink:href="#o" transform="matrix(1,0,0,1,125,443.0859023612279) translate(159.65987654320986 97.47777777777773)"/><use xlink:href="#p" transform="matrix(1,0,0,1,125,443.0859023612279) translate(113.12067901234569 121.74444444444438)"/><path d="M539.5 570.57v36.3" stroke="#333" fill="none"/><path d="M540 570.58h-1v-.5h1" fill="#333"/><path d="M539.5 621.64l-4.63-14.27h9.27z" stroke="#333" fill="#333"/><path d="M539.76 753.82v30.28c0 1.42 1.15 2.56 2.56 2.56 1.42 0 2.56 1.15 2.56 2.56v14.4" stroke="#333" fill="none"/><path d="M540.26 753.84h-1v-.52h1" fill="#333"/><path d="M544.88 818.38l-4.63-14.26h9.27z" stroke="#333" fill="#333"/><path d="M544.88 921v25.94c0 1.4-1.14 2.56-2.56 2.56-1.4 0-2.56 1.15-2.56 2.56v8.44" stroke="#333" stroke-width="2" fill="none"/><path d="M545.88 921.03h-2V920h2" fill="#333"/><path d="M539.76 975.76l-4.63-14.26h9.27z" stroke="#333" stroke-width="2" fill="#333"/><path d="M417.24 993.7c0-4.43 3.58-8 8-8h224c4.4 0 8 3.57 8 8v44c0 4.4-3.6 8-8 8h-224c-4.42 0-8-3.6-8-8z" stroke="#000" stroke-opacity="0" stroke-width="2" fill="#fff" fill-opacity="0"/><use xlink:href="#q" transform="matrix(1,0,0,1,422.23512569515344,990.6932036190794) translate(43.125 17.525)"/><use xlink:href="#r" transform="matrix(1,0,0,1,422.23512569515344,990.6932036190794) translate(166.875 17.525)"/><use xlink:href="#s" transform="matrix(1,0,0,1,422.23512569515344,990.6932036190794) translate(59.55 39.125)"/><path d="M680 451.25c0-4.4 3.58-8 8-8h264c4.42 0 8 3.6 8 8v294.07c0 4.42-3.58 8-8 8H688c-4.42 0-8-3.58-8-8z" fill="none"/><path d="M680 753.32c5.52 0 10-4.47 10-10V608.3c0-5.53 4.48-10 10-10-5.52 0-10-4.5-10-10V453.24c0-5.52-4.48-10-10-10" stroke="#333" stroke-width="3" fill="none"/><use xlink:href="#t" transform="matrix(1,0,0,1,715,448.2540335696111) translate(27.342901234567933 45.344444444444505)"/><use xlink:href="#u" transform="matrix(1,0,0,1,715,448.2540335696111) translate(58.79969135802471 45.344444444444505)"/><use xlink:href="#v" transform="matrix(1,0,0,1,715,448.2540335696111) translate(119.46635802469135 45.344444444444505)"/><use xlink:href="#w" transform="matrix(1,0,0,1,715,448.2540335696111) translate(157.66388888888886 45.344444444444505)"/><use xlink:href="#x" transform="matrix(1,0,0,1,715,448.2540335696111) translate(21.78179012345683 69.61111111111116)"/><use xlink:href="#y" transform="matrix(1,0,0,1,715,448.2540335696111) translate(91.32376543209877 69.61111111111116)"/><use xlink:href="#z" transform="matrix(1,0,0,1,715,448.2540335696111) translate(129.52129629629627 69.61111111111116)"/><use xlink:href="#A" transform="matrix(1,0,0,1,715,448.2540335696111) translate(3.3570987654321556 93.87777777777782)"/><use xlink:href="#B" transform="matrix(1,0,0,1,715,448.2540335696111) translate(98.62623456790125 93.87777777777782)"/><use xlink:href="#C" transform="matrix(1,0,0,1,715,448.2540335696111) translate(115.4780864197531 93.87777777777782)"/><use xlink:href="#D" transform="matrix(1,0,0,1,715,448.2540335696111) translate(204.06265432098763 93.87777777777782)"/><use xlink:href="#E" transform="matrix(1,0,0,1,715,448.2540335696111) translate(26.191358024691382 118.14444444444449)"/><use xlink:href="#F" transform="matrix(1,0,0,1,715,448.2540335696111) translate(130.67283950617283 118.14444444444449)"/><use xlink:href="#G" transform="matrix(1,0,0,1,715,448.2540335696111) translate(141.9074074074074 118.14444444444449)"/><use xlink:href="#H" transform="matrix(1,0,0,1,715,448.2540335696111) translate(202.57407407407408 118.14444444444449)"/><use xlink:href="#I" transform="matrix(1,0,0,1,715,448.2540335696111) translate(1.025925925925975 142.41111111111113)"/><use xlink:href="#J" transform="matrix(1,0,0,1,715,448.2540335696111) translate(162.69135802469134 142.41111111111113)"/><use xlink:href="#K" transform="matrix(1,0,0,1,715,448.2540335696111) translate(2.12129629629635 166.67777777777778)"/><use xlink:href="#L" transform="matrix(1,0,0,1,715,448.2540335696111) translate(35.82500000000004 166.67777777777778)"/><use xlink:href="#M" transform="matrix(1,0,0,1,715,448.2540335696111) translate(52.67685185185188 166.67777777777778)"/><use xlink:href="#N" transform="matrix(1,0,0,1,715,448.2540335696111) translate(215.40956790123454 166.67777777777778)"/><use xlink:href="#O" transform="matrix(1,0,0,1,715,448.2540335696111) translate(30.741358024691408 190.94444444444443)"/><use xlink:href="#x" transform="matrix(1,0,0,1,715,448.2540335696111) translate(117.24753086419754 190.94444444444443)"/><use xlink:href="#P" transform="matrix(1,0,0,1,715,448.2540335696111) translate(186.78950617283948 190.94444444444443)"/><use xlink:href="#Q" transform="matrix(1,0,0,1,715,448.2540335696111) translate(25.180246913580277 215.21111111111108)"/><use xlink:href="#R" transform="matrix(1,0,0,1,715,448.2540335696111) translate(91.40802469135802 215.21111111111108)"/><use xlink:href="#S" transform="matrix(1,0,0,1,715,448.2540335696111) translate(176.67839506172837 215.21111111111108)"/><use xlink:href="#T" transform="matrix(1,0,0,1,715,448.2540335696111) translate(13.917592592592655 239.47777777777773)"/><use xlink:href="#U" transform="matrix(1,0,0,1,715,448.2540335696111) translate(102.6706790123457 239.47777777777773)"/><use xlink:href="#V" transform="matrix(1,0,0,1,715,448.2540335696111) translate(130.7570987654321 239.47777777777773)"/><use xlink:href="#N" transform="matrix(1,0,0,1,715,448.2540335696111) translate(203.61327160493823 239.47777777777773)"/><use xlink:href="#W" transform="matrix(1,0,0,1,715,448.2540335696111) translate(88.00956790123459 263.74444444444435)"/><path d="M680 253.6c0-4.42 3.58-8 8-8h194.6c4.43 0 8 3.58 8 8v115.33c0 4.42-3.57 8-8 8H688c-4.42 0-8-3.58-8-8z" fill="#fff" fill-opacity="0"/><path d="M701.06 245.6H688c-4.42 0-8 3.58-8 8v115.33c0 4.42 3.58 8 8 8h13.06" stroke="#333" fill="none"/><g><use xlink:href="#X" transform="matrix(1,0,0,1,698.1632978947949,250.59724420379155) translate(94 40.77777777777778)"/><use xlink:href="#Y" transform="matrix(1,0,0,1,698.1632978947949,250.59724420379155) translate(7.578086419753092 65.04444444444445)"/><use xlink:href="#Z" transform="matrix(1,0,0,1,698.1632978947949,250.59724420379155) translate(126.55216049382716 65.04444444444445)"/><use xlink:href="#aa" transform="matrix(1,0,0,1,698.1632978947949,250.59724420379155) translate(8.701543209876547 89.3111111111111)"/><use xlink:href="#ab" transform="matrix(1,0,0,1,698.1632978947949,250.59724420379155) translate(74.92932098765431 89.3111111111111)"/><use xlink:href="#ac" transform="matrix(1,0,0,1,698.1632978947949,250.59724420379155) translate(103.01574074074072 89.3111111111111)"/></g><path d="M640.03 311.26h13.85c3.1 0 5.63 2.53 5.63 5.64v2.03c0 2 1.63 3.6 3.62 3.6" stroke="#333" fill="none"/><path d="M640.04 311.76h-.5v-1h.5" fill="#333"/><path d="M677.88 322.53l-14.26 4.63v-9.27z" stroke="#333" fill="#333"/><path d="M240 616.3c0-4.43 3.58-8 8-8h154.14c4.42 0 8 3.57 8 8v144c0 4.4-3.58 8-8 8H248c-4.42 0-8-3.6-8-8z" fill="none"/><path d="M410.14 768.3c-5.52 0-10-4.5-10-10v-60c0-5.53-4.47-10-10-10 5.53 0 10-4.5 10-10v-60c0-5.53 4.48-10 10-10" stroke="#333" stroke-width="3" fill="none"/><g><use xlink:href="#ad" transform="matrix(1,0,0,1,245,613.2882584236347) translate(3.0249999999999986 24.6)"/><use xlink:href="#ae" transform="matrix(1,0,0,1,245,613.2882584236347) translate(39.975 24.6)"/><use xlink:href="#af" transform="matrix(1,0,0,1,245,613.2882584236347) translate(64.975 24.6)"/><use xlink:href="#ag" transform="matrix(1,0,0,1,245,613.2882584236347) translate(24.049999999999997 46.2)"/><use xlink:href="#ah" transform="matrix(1,0,0,1,245,613.2882584236347) translate(14.574999999999996 67.80000000000001)"/><use xlink:href="#ai" transform="matrix(1,0,0,1,245,613.2882584236347) translate(35.05 89.40000000000002)"/><use xlink:href="#aj" transform="matrix(1,0,0,1,245,613.2882584236347) translate(5.075000000000003 111.00000000000001)"/><use xlink:href="#r" transform="matrix(1,0,0,1,245,613.2882584236347) translate(105.925 111.00000000000001)"/><use xlink:href="#ak" transform="matrix(1,0,0,1,245,613.2882584236347) translate(20.575000000000003 132.6)"/><use xlink:href="#al" transform="matrix(1,0,0,1,245,613.2882584236347) translate(81.42500000000001 132.6)"/></g><path d="M669.4 798c0-4.42 3.57-8 8-8H952c4.42 0 8 3.58 8 8v144c0 4.42-3.58 8-8 8H677.4c-4.43 0-8-3.58-8-8z" fill="none"/><path d="M669.4 950c5.5 0 10-4.48 10-10v-60c0-5.52 4.46-10 10-10-5.54 0-10-4.48-10-10v-60c0-5.52-4.5-10-10-10" stroke="#333" fill="none"/><g><use xlink:href="#am" transform="matrix(1,0,0,1,704.3872336832817,795) translate(11.049999999999997 57)"/><use xlink:href="#an" transform="matrix(1,0,0,1,704.3872336832817,795) translate(83.95 57)"/><use xlink:href="#ao" transform="matrix(1,0,0,1,704.3872336832817,795) translate(157.95 57)"/><use xlink:href="#ap" transform="matrix(1,0,0,1,704.3872336832817,795) translate(191.95 57)"/><use xlink:href="#aq" transform="matrix(1,0,0,1,704.3872336832817,795) translate(9.125 78.60000000000001)"/><use xlink:href="#ar" transform="matrix(1,0,0,1,704.3872336832817,795) translate(104.97500000000001 78.60000000000001)"/><use xlink:href="#as" transform="matrix(1,0,0,1,704.3872336832817,795) translate(192.925 78.60000000000001)"/><use xlink:href="#at" transform="matrix(1,0,0,1,704.3872336832817,795) translate(231.875 78.60000000000001)"/><use xlink:href="#au" transform="matrix(1,0,0,1,704.3872336832817,795) translate(23.625 100.20000000000002)"/><use xlink:href="#av" transform="matrix(1,0,0,1,704.3872336832817,795) translate(93.525 100.20000000000002)"/><use xlink:href="#aw" transform="matrix(1,0,0,1,704.3872336832817,795) translate(135.425 100.20000000000002)"/><use xlink:href="#ax" transform="matrix(1,0,0,1,704.3872336832817,795) translate(160.425 100.20000000000002)"/></g><defs><path fill="#fff" d="M24-248c120-7 223 5 221 122C244-46 201 0 124 0H24v-248zM76-40c74 7 117-18 117-86 0-67-45-88-117-82v168" id="ay"/><path fill="#fff" d="M185-48c-13 30-37 53-82 52C43 2 14-33 14-96s30-98 90-98c62 0 83 45 84 108H66c0 31 8 55 39 56 18 0 30-7 34-22zm-45-69c5-46-57-63-70-21-2 6-4 13-4 21h74" id="az"/><path fill="#fff" d="M135-194c52 0 70 43 70 98 0 56-19 99-73 100-30 1-46-15-58-35L72 0H24l1-261h50v104c11-23 29-37 60-37zM114-30c31 0 40-27 40-66 0-37-7-63-39-63s-41 28-41 65c0 36 8 64 40 64" id="aA"/><path fill="#fff" d="M133-34C117-15 103 5 69 4 32 3 11-16 11-54c-1-60 55-63 116-61 1-26-3-47-28-47-18 1-26 9-28 27l-52-2c7-38 36-58 82-57s74 22 75 68l1 82c-1 14 12 18 25 15v27c-30 8-71 5-69-32zm-48 3c29 0 43-24 42-57-32 0-66-3-65 30 0 17 8 27 23 27" id="aB"/><path fill="#fff" d="M115-3C79 11 28 4 28-45v-112H4v-33h27l15-45h31v45h36v33H77v99c-1 23 16 31 38 25v30" id="aC"/><g id="a"><use transform="matrix(0.05555555555555555,0,0,0.05555555555555555,0,0)" xlink:href="#ay"/><use transform="matrix(0.05555555555555555,0,0,0.05555555555555555,14.388888888888888,0)" xlink:href="#az"/><use transform="matrix(0.05555555555555555,0,0,0.05555555555555555,25.5,0)" xlink:href="#aA"/><use transform="matrix(0.05555555555555555,0,0,0.05555555555555555,37.666666666666664,0)" xlink:href="#aB"/><use transform="matrix(0.05555555555555555,0,0,0.05555555555555555,48.77777777777777,0)" xlink:href="#aC"/><use transform="matrix(0.05555555555555555,0,0,0.05555555555555555,55.388888888888886,0)" xlink:href="#az"/></g><path fill="#fff" d="M136-208V0H84v-208H4v-40h212v40h-80" id="aD"/><path fill="#fff" d="M220-157c-53 9-28 100-34 157h-49v-107c1-27-5-49-29-50C55-147 81-57 75 0H25l-1-190h47c2 12-1 28 3 38 10-53 101-56 108 0 13-22 24-43 59-42 82 1 51 116 57 194h-49v-107c-1-25-5-48-29-50" id="aE"/><g id="b"><use transform="matrix(0.05555555555555555,0,0,0.05555555555555555,0,0)" xlink:href="#aD"/><use transform="matrix(0.05555555555555555,0,0,0.05555555555555555,10.666666666666666,0)" xlink:href="#az"/><use transform="matrix(0.05555555555555555,0,0,0.05555555555555555,21.77777777777778,0)" xlink:href="#aE"/><use transform="matrix(0.05555555555555555,0,0,0.05555555555555555,39.55555555555556,0)" xlink:href="#aB"/></g><path fill="#fff" d="M266 0h-40l-56-210L115 0H75L2-248h35L96-30l15-64 43-154h32l59 218 59-218h35" id="aF"/><path fill="#fff" d="M141-36C126-15 110 5 73 4 37 3 15-17 15-53c-1-64 63-63 125-63 3-35-9-54-41-54-24 1-41 7-42 31l-33-3c5-37 33-52 76-52 45 0 72 20 72 64v82c-1 20 7 32 28 27v20c-31 9-61-2-59-35zM48-53c0 20 12 33 32 33 41-3 63-29 60-74-43 2-92-5-92 41" id="aG"/><path fill="#fff" d="M114-163C36-179 61-72 57 0H25l-1-190h30c1 12-1 29 2 39 6-27 23-49 58-41v29" id="aH"/><path fill="#fff" d="M210-169c-67 3-38 105-44 169h-31v-121c0-29-5-50-35-48C34-165 62-65 56 0H25l-1-190h30c1 10-1 24 2 32 10-44 99-50 107 0 11-21 27-35 58-36 85-2 47 119 55 194h-31v-121c0-29-5-49-35-48" id="aI"/><g id="c"><use transform="matrix(0.04938271604938272,0,0,0.04938271604938272,0,0)" xlink:href="#aF"/><use transform="matrix(0.04938271604938272,0,0,0.04938271604938272,16.098765432098766,0)" xlink:href="#aG"/><use transform="matrix(0.04938271604938272,0,0,0.04938271604938272,25.97530864197531,0)" xlink:href="#aH"/><use transform="matrix(0.04938271604938272,0,0,0.04938271604938272,31.851851851851855,0)" xlink:href="#aI"/></g><path fill="#fff" d="M84 4C-5 8 30-112 23-190h32v120c0 31 7 50 39 49 72-2 45-101 50-169h31l1 190h-30c-1-10 1-25-2-33-11 22-28 36-60 37" id="aJ"/><path fill="#fff" d="M115-194c55 1 70 41 70 98S169 2 115 4C84 4 66-9 55-30l1 105H24l-1-265h31l2 30c10-21 28-34 59-34zm-8 174c40 0 45-34 45-75s-6-73-45-74c-42 0-51 32-51 76 0 43 10 73 51 73" id="aK"/><g id="d"><use transform="matrix(0.04938271604938272,0,0,0.04938271604938272,0,0)" xlink:href="#aJ"/><use transform="matrix(0.04938271604938272,0,0,0.04938271604938272,9.876543209876544,0)" xlink:href="#aK"/></g><path fill="#333" d="M205 0l-28-72H64L36 0H1l101-248h38L239 0h-34zm-38-99l-47-123c-12 45-31 82-46 123h93" id="aL"/><path fill="#333" d="M117-194c89-4 53 116 60 194h-32v-121c0-31-8-49-39-48C34-167 62-67 57 0H25l-1-190h30c1 10-1 24 2 32 11-22 29-35 61-36" id="aM"/><path fill="#333" d="M141-36C126-15 110 5 73 4 37 3 15-17 15-53c-1-64 63-63 125-63 3-35-9-54-41-54-24 1-41 7-42 31l-33-3c5-37 33-52 76-52 45 0 72 20 72 64v82c-1 20 7 32 28 27v20c-31 9-61-2-59-35zM48-53c0 20 12 33 32 33 41-3 63-29 60-74-43 2-92-5-92 41zm25-158c8-23 27-35 38-54h36v5l-58 49H73" id="aN"/><path fill="#333" d="M24 0v-261h32V0H24" id="aO"/><path fill="#333" d="M24-231v-30h32v30H24zM24 0v-190h32V0H24" id="aP"/><path fill="#333" d="M135-143c-3-34-86-38-87 0 15 53 115 12 119 90S17 21 10-45l28-5c4 36 97 45 98 0-10-56-113-15-118-90-4-57 82-63 122-42 12 7 21 19 24 35" id="aQ"/><path fill="#333" d="M100-194c63 0 86 42 84 106H49c0 40 14 67 53 68 26 1 43-12 49-29l28 8c-11 28-37 45-77 45C44 4 14-33 15-96c1-61 26-98 85-98zm52 81c6-60-76-77-97-28-3 7-6 17-6 28h103" id="aR"/><g id="e"><use transform="matrix(0.04938271604938272,0,0,0.04938271604938272,0,0)" xlink:href="#aL"/><use transform="matrix(0.04938271604938272,0,0,0.04938271604938272,11.851851851851853,0)" xlink:href="#aM"/><use transform="matrix(0.04938271604938272,0,0,0.04938271604938272,21.7283950617284,0)" xlink:href="#aN"/><use transform="matrix(0.04938271604938272,0,0,0.04938271604938272,31.60493827160494,0)" xlink:href="#aO"/><use transform="matrix(0.04938271604938272,0,0,0.04938271604938272,35.50617283950618,0)" xlink:href="#aP"/><use transform="matrix(0.04938271604938272,0,0,0.04938271604938272,39.40740740740741,0)" xlink:href="#aQ"/><use transform="matrix(0.04938271604938272,0,0,0.04938271604938272,48.296296296296305,0)" xlink:href="#aR"/></g><path fill="#333" d="M212-179c-10-28-35-45-73-45-59 0-87 40-87 99 0 60 29 101 89 101 43 0 62-24 78-52l27 14C228-24 195 4 139 4 59 4 22-46 18-125c-6-104 99-153 187-111 19 9 31 26 39 46" id="aS"/><path fill="#333" d="M114-163C36-179 61-72 57 0H25l-1-190h30c1 12-1 29 2 39 6-27 23-49 58-41v29" id="aT"/><path fill="#333" d="M34 0v-190h32V0H34zM24-211c8-23 27-35 38-54h36v5l-58 49H24" id="aU"/><path fill="#333" d="M59-47c-2 24 18 29 38 22v24C64 9 27 4 27-40v-127H5v-23h24l9-43h21v43h35v23H59v120" id="aV"/><path fill="#333" d="M96-169c-40 0-48 33-48 73s9 75 48 75c24 0 41-14 43-38l32 2c-6 37-31 61-74 61-59 0-76-41-82-99-10-93 101-131 147-64 4 7 5 14 7 22l-32 3c-4-21-16-35-41-35" id="aW"/><path fill="#333" d="M141-36C126-15 110 5 73 4 37 3 15-17 15-53c-1-64 63-63 125-63 3-35-9-54-41-54-24 1-41 7-42 31l-33-3c5-37 33-52 76-52 45 0 72 20 72 64v82c-1 20 7 32 28 27v20c-31 9-61-2-59-35zM48-53c0 20 12 33 32 33 41-3 63-29 60-74-43 2-92-5-92 41" id="aX"/><g id="f"><use transform="matrix(0.04938271604938272,0,0,0.04938271604938272,0,0)" xlink:href="#aS"/><use transform="matrix(0.04938271604938272,0,0,0.04938271604938272,12.790123456790125,0)" xlink:href="#aT"/><use transform="matrix(0.04938271604938272,0,0,0.04938271604938272,18.666666666666668,0)" xlink:href="#aU"/><use transform="matrix(0.04938271604938272,0,0,0.04938271604938272,23.60493827160494,0)" xlink:href="#aV"/><use transform="matrix(0.04938271604938272,0,0,0.04938271604938272,28.543209876543212,0)" xlink:href="#aP"/><use transform="matrix(0.04938271604938272,0,0,0.04938271604938272,32.44444444444445,0)" xlink:href="#aW"/><use transform="matrix(0.04938271604938272,0,0,0.04938271604938272,41.33333333333334,0)" xlink:href="#aX"/></g><path fill="#fafafa" d="M197 0v-115H63V0H30v-248h33v105h134v-105h34V0h-34" id="aY"/><path fill="#fafafa" d="M141-36C126-15 110 5 73 4 37 3 15-17 15-53c-1-64 63-63 125-63 3-35-9-54-41-54-24 1-41 7-42 31l-33-3c5-37 33-52 76-52 45 0 72 20 72 64v82c-1 20 7 32 28 27v20c-31 9-61-2-59-35zM48-53c0 20 12 33 32 33 41-3 63-29 60-74-43 2-92-5-92 41" id="aZ"/><path fill="#fafafa" d="M115-194c53 0 69 39 70 98 0 66-23 100-70 100C84 3 66-7 56-30L54 0H23l1-261h32v101c10-23 28-34 59-34zm-8 174c40 0 45-34 45-75 0-40-5-75-45-74-42 0-51 32-51 76 0 43 10 73 51 73" id="ba"/><path fill="#fafafa" d="M24-231v-30h32v30H24zM24 0v-190h32V0H24" id="bb"/><path fill="#fafafa" d="M24 0v-261h32V0H24" id="bc"/><path fill="#fafafa" d="M85-194c31 0 48 13 60 33l-1-100h32l1 261h-30c-2-10 0-23-3-31C134-8 116 4 85 4 32 4 16-35 15-94c0-66 23-100 70-100zm9 24c-40 0-46 34-46 75 0 40 6 74 45 74 42 0 51-32 51-76 0-42-9-74-50-73" id="bd"/><path fill="#fafafa" d="M100-194c63 0 86 42 84 106H49c0 40 14 67 53 68 26 1 43-12 49-29l28 8c-11 28-37 45-77 45C44 4 14-33 15-96c1-61 26-98 85-98zm52 81c6-60-76-77-97-28-3 7-6 17-6 28h103" id="be"/><path fill="#fafafa" d="M33-154v-36h34v36H33zM33 0v-36h34V0H33" id="bf"/><g id="g"><use transform="matrix(0.05,0,0,0.05,0,0)" xlink:href="#aY"/><use transform="matrix(0.05,0,0,0.05,12.950000000000001,0)" xlink:href="#aZ"/><use transform="matrix(0.05,0,0,0.05,22.950000000000003,0)" xlink:href="#ba"/><use transform="matrix(0.05,0,0,0.05,32.95,0)" xlink:href="#bb"/><use transform="matrix(0.05,0,0,0.05,36.900000000000006,0)" xlink:href="#bc"/><use transform="matrix(0.05,0,0,0.05,40.85000000000001,0)" xlink:href="#bb"/><use transform="matrix(0.05,0,0,0.05,44.80000000000001,0)" xlink:href="#bd"/><use transform="matrix(0.05,0,0,0.05,54.80000000000001,0)" xlink:href="#aZ"/><use transform="matrix(0.05,0,0,0.05,64.80000000000001,0)" xlink:href="#bd"/><use transform="matrix(0.05,0,0,0.05,74.80000000000001,0)" xlink:href="#be"/><use transform="matrix(0.05,0,0,0.05,84.80000000000001,0)" xlink:href="#bf"/></g><path fill="#fafafa" d="M212-179c-10-28-35-45-73-45-59 0-87 40-87 99 0 60 29 101 89 101 43 0 62-24 78-52l27 14C228-24 195 4 139 4 59 4 22-46 18-125c-6-104 99-153 187-111 19 9 31 26 39 46" id="bg"/><path fill="#fafafa" d="M100-194c63 0 86 42 84 106H49c0 40 14 67 53 68 26 1 43-12 49-29l28 8c-11 28-37 45-77 45C44 4 14-33 15-96c1-61 26-98 85-98zm52 81c6-60-76-77-97-28-3 7-6 17-6 28h103zm-32-149c12 18 30 30 39 51-31 2-38-20-57-30-20 10-27 32-59 30 9-22 29-33 41-51h36" id="bh"/><path fill="#fafafa" d="M117-194c89-4 53 116 60 194h-32v-121c0-31-8-49-39-48C34-167 62-67 57 0H25l-1-190h30c1 10-1 24 2 32 11-22 29-35 61-36" id="bi"/><path fill="#fafafa" d="M96-169c-40 0-48 33-48 73s9 75 48 75c24 0 41-14 43-38l32 2c-6 37-31 61-74 61-59 0-76-41-82-99-10-93 101-131 147-64 4 7 5 14 7 22l-32 3c-4-21-16-35-41-35" id="bj"/><g id="h"><use transform="matrix(0.05,0,0,0.05,0,0)" xlink:href="#bg"/><use transform="matrix(0.05,0,0,0.05,12.950000000000001,0)" xlink:href="#bb"/><use transform="matrix(0.05,0,0,0.05,16.900000000000002,0)" xlink:href="#bh"/><use transform="matrix(0.05,0,0,0.05,26.900000000000002,0)" xlink:href="#bi"/><use transform="matrix(0.05,0,0,0.05,36.900000000000006,0)" xlink:href="#bj"/><use transform="matrix(0.05,0,0,0.05,45.900000000000006,0)" xlink:href="#bb"/><use transform="matrix(0.05,0,0,0.05,49.85000000000001,0)" xlink:href="#aZ"/></g><g id="i"><use transform="matrix(0.05,0,0,0.05,0,0)" xlink:href="#bd"/><use transform="matrix(0.05,0,0,0.05,10,0)" xlink:href="#be"/></g><path fill="#fafafa" d="M30-248c118-7 216 8 213 122C240-48 200 0 122 0H30v-248zM63-27c89 8 146-16 146-99s-60-101-146-95v194" id="bk"/><path fill="#fafafa" d="M100-194c62-1 85 37 85 99 1 63-27 99-86 99S16-35 15-95c0-66 28-99 85-99zM99-20c44 1 53-31 53-75 0-43-8-75-51-75s-53 32-53 75 10 74 51 75" id="bl"/><path fill="#fafafa" d="M135-143c-3-34-86-38-87 0 15 53 115 12 119 90S17 21 10-45l28-5c4 36 97 45 98 0-10-56-113-15-118-90-4-57 82-63 122-42 12 7 21 19 24 35" id="bm"/><g id="j"><use transform="matrix(0.05,0,0,0.05,0,0)" xlink:href="#bk"/><use transform="matrix(0.05,0,0,0.05,12.950000000000001,0)" xlink:href="#aZ"/><use transform="matrix(0.05,0,0,0.05,22.950000000000003,0)" xlink:href="#bd"/><use transform="matrix(0.05,0,0,0.05,32.95,0)" xlink:href="#bl"/><use transform="matrix(0.05,0,0,0.05,42.95,0)" xlink:href="#bm"/></g><path d="M136-208V0H84v-208H4v-40h212v40h-80" id="bn"/><path d="M135-150c-39-12-60 13-60 57V0H25l-1-190h47c2 13-1 29 3 40 6-28 27-53 61-41v41" id="bo"/><path d="M133-34C117-15 103 5 69 4 32 3 11-16 11-54c-1-60 55-63 116-61 1-26-3-47-28-47-18 1-26 9-28 27l-52-2c7-38 36-58 82-57s74 22 75 68l1 82c-1 14 12 18 25 15v27c-30 8-71 5-69-32zm-48 3c29 0 43-24 42-57-32 0-66-3-65 30 0 17 8 27 23 27" id="bp"/><path d="M135-194c87-1 58 113 63 194h-50c-7-57 23-157-34-157-59 0-34 97-39 157H25l-1-190h47c2 12-1 28 3 38 12-26 28-41 61-42" id="bq"/><path d="M137-138c1-29-70-34-71-4 15 46 118 7 119 86 1 83-164 76-172 9l43-7c4 19 20 25 44 25 33 8 57-30 24-41C81-84 22-81 20-136c-2-80 154-74 161-7" id="br"/><path d="M128 0H69L1-190h53L99-40l48-150h52" id="bs"/><path d="M185-48c-13 30-37 53-82 52C43 2 14-33 14-96s30-98 90-98c62 0 83 45 84 108H66c0 31 8 55 39 56 18 0 30-7 34-22zm-45-69c5-46-57-63-70-21-2 6-4 13-4 21h74" id="bt"/><path d="M25 0v-261h50V0H25" id="bu"/><path d="M25-224v-37h50v37H25zM25 0v-190h50V0H25" id="bv"/><path d="M88-194c31-1 46 15 58 34l-1-101h50l1 261h-48c-2-10 0-23-3-31C134-8 116 4 84 4 32 4 16-41 15-95c0-56 19-97 73-99zm17 164c33 0 40-30 41-66 1-37-9-64-41-64s-38 30-39 65c0 43 13 65 39 65" id="bw"/><path d="M35-132v-50h50v50H35zM35 0v-49h50V0H35" id="bx"/><g id="k"><use transform="matrix(0.05617283950617281,0,0,0.05617283950617281,0,0)" xlink:href="#bn"/><use transform="matrix(0.05617283950617281,0,0,0.05617283950617281,11.17839506172839,0)" xlink:href="#bo"/><use transform="matrix(0.05617283950617281,0,0,0.05617283950617281,19.042592592592584,0)" xlink:href="#bp"/><use transform="matrix(0.05617283950617281,0,0,0.05617283950617281,30.27716049382715,0)" xlink:href="#bq"/><use transform="matrix(0.05617283950617281,0,0,0.05617283950617281,42.57901234567899,0)" xlink:href="#br"/><use transform="matrix(0.05617283950617281,0,0,0.05617283950617281,53.81358024691355,0)" xlink:href="#bs"/><use transform="matrix(0.05617283950617281,0,0,0.05617283950617281,65.04814814814812,0)" xlink:href="#bt"/><use transform="matrix(0.05617283950617281,0,0,0.05617283950617281,76.28271604938267,0)" xlink:href="#bo"/><use transform="matrix(0.05617283950617281,0,0,0.05617283950617281,84.14691358024686,0)" xlink:href="#br"/><use transform="matrix(0.05617283950617281,0,0,0.05617283950617281,95.38148148148142,0)" xlink:href="#bp"/><use transform="matrix(0.05617283950617281,0,0,0.05617283950617281,106.61604938271597,0)" xlink:href="#bu"/><use transform="matrix(0.05617283950617281,0,0,0.05617283950617281,112.23333333333325,0)" xlink:href="#bv"/><use transform="matrix(0.05617283950617281,0,0,0.05617283950617281,117.85061728395053,0)" xlink:href="#bw"/><use transform="matrix(0.05617283950617281,0,0,0.05617283950617281,130.15246913580236,0)" xlink:href="#bp"/><use transform="matrix(0.05617283950617281,0,0,0.05617283950617281,141.38703703703692,0)" xlink:href="#bw"/><use transform="matrix(0.05617283950617281,0,0,0.05617283950617281,153.68888888888875,0)" xlink:href="#bt"/><use transform="matrix(0.05617283950617281,0,0,0.05617283950617281,164.9234567901233,0)" xlink:href="#bx"/></g><path d="M143 4C61 4 22-44 18-125c-5-107 100-154 193-111 17 8 29 25 37 43l-32 9c-13-25-37-40-76-40-61 0-88 39-88 99 0 61 29 100 91 101 35 0 62-11 79-27v-45h-74v-28h105v86C228-13 192 4 143 4" id="by"/><path d="M100-194c63 0 86 42 84 106H49c0 40 14 67 53 68 26 1 43-12 49-29l28 8c-11 28-37 45-77 45C44 4 14-33 15-96c1-61 26-98 85-98zm52 81c6-60-76-77-97-28-3 7-6 17-6 28h103zm-32-149c12 18 30 30 39 51-31 2-38-20-57-30-20 10-27 32-59 30 9-22 29-33 41-51h36" id="bz"/><path d="M117-194c89-4 53 116 60 194h-32v-121c0-31-8-49-39-48C34-167 62-67 57 0H25l-1-190h30c1 10-1 24 2 32 11-22 29-35 61-36" id="bA"/><path d="M100-194c63 0 86 42 84 106H49c0 40 14 67 53 68 26 1 43-12 49-29l28 8c-11 28-37 45-77 45C44 4 14-33 15-96c1-61 26-98 85-98zm52 81c6-60-76-77-97-28-3 7-6 17-6 28h103" id="bB"/><path d="M114-163C36-179 61-72 57 0H25l-1-190h30c1 12-1 29 2 39 6-27 23-49 58-41v29" id="bC"/><path d="M100-194c62-1 85 37 85 99 1 63-27 99-86 99S16-35 15-95c0-66 28-99 85-99zM99-20c44 1 53-31 53-75 0-43-8-75-51-75s-53 32-53 75 10 74 51 75" id="bD"/><g id="l"><use transform="matrix(0.05617283950617281,0,0,0.05617283950617281,0,0)" xlink:href="#by"/><use transform="matrix(0.05617283950617281,0,0,0.05617283950617281,15.728395061728387,0)" xlink:href="#bz"/><use transform="matrix(0.05617283950617281,0,0,0.05617283950617281,26.962962962962948,0)" xlink:href="#bA"/><use transform="matrix(0.05617283950617281,0,0,0.05617283950617281,38.19753086419751,0)" xlink:href="#bB"/><use transform="matrix(0.05617283950617281,0,0,0.05617283950617281,49.43209876543207,0)" xlink:href="#bC"/><use transform="matrix(0.05617283950617281,0,0,0.05617283950617281,56.11666666666664,0)" xlink:href="#bD"/></g><path d="M233-177c-1 41-23 64-60 70L243 0h-38l-65-103H63V0H30v-248c88 3 205-21 203 71zM63-129c60-2 137 13 137-47 0-61-80-42-137-45v92" id="bE"/><path d="M141-36C126-15 110 5 73 4 37 3 15-17 15-53c-1-64 63-63 125-63 3-35-9-54-41-54-24 1-41 7-42 31l-33-3c5-37 33-52 76-52 45 0 72 20 72 64v82c-1 20 7 32 28 27v20c-31 9-61-2-59-35zM48-53c0 20 12 33 32 33 41-3 63-29 60-74-43 2-92-5-92 41" id="bF"/><path d="M96-169c-40 0-48 33-48 73s9 75 48 75c24 0 41-14 43-38l32 2c-6 37-31 61-74 61-59 0-76-41-82-99-10-93 101-131 147-64 4 7 5 14 7 22l-32 3c-4-21-16-35-41-35zm3 187c19-1 33 8 33 26 0 31-30 33-64 32V58c18 2 39 4 41-13 1-15-18-13-34-13L87 0h19" id="bG"/><g id="m"><use transform="matrix(0.05617283950617281,0,0,0.05617283950617281,0,0)" xlink:href="#bE"/><use transform="matrix(0.05617283950617281,0,0,0.05617283950617281,14.548765432098756,0)" xlink:href="#bF"/><use transform="matrix(0.05617283950617281,0,0,0.05617283950617281,25.783333333333317,0)" xlink:href="#bG"/><use transform="matrix(0.05617283950617281,0,0,0.05617283950617281,35.894444444444424,0)" xlink:href="#bF"/></g><path d="M185-189c-5-48-123-54-124 2 14 75 158 14 163 119 3 78-121 87-175 55-17-10-28-26-33-46l33-7c5 56 141 63 141-1 0-78-155-14-162-118-5-82 145-84 179-34 5 7 8 16 11 25" id="bH"/><path d="M96-169c-40 0-48 33-48 73s9 75 48 75c24 0 41-14 43-38l32 2c-6 37-31 61-74 61-59 0-76-41-82-99-10-93 101-131 147-64 4 7 5 14 7 22l-32 3c-4-21-16-35-41-35" id="bI"/><path d="M24-231v-30h32v30H24zM24 0v-190h32V0H24" id="bJ"/><path d="M24 0v-261h32V0H24" id="bK"/><g id="n"><use transform="matrix(0.05617283950617281,0,0,0.05617283950617281,0,0)" xlink:href="#bH"/><use transform="matrix(0.05617283950617281,0,0,0.05617283950617281,13.481481481481474,0)" xlink:href="#bD"/><use transform="matrix(0.05617283950617281,0,0,0.05617283950617281,24.716049382716037,0)" xlink:href="#bI"/><use transform="matrix(0.05617283950617281,0,0,0.05617283950617281,34.827160493827144,0)" xlink:href="#bJ"/><use transform="matrix(0.05617283950617281,0,0,0.05617283950617281,39.2648148148148,0)" xlink:href="#bF"/><use transform="matrix(0.05617283950617281,0,0,0.05617283950617281,50.49938271604936,0)" xlink:href="#bK"/></g><use transform="matrix(0.05617283950617281,0,0,0.05617283950617281,0,0)" xlink:href="#bB" id="o"/><path d="M140-251c81 0 123 46 123 126C263-46 219 4 140 4 59 4 17-45 17-125s42-126 123-126zm0 227c63 0 89-41 89-101s-29-99-89-99c-61 0-89 39-89 99S79-25 140-24" id="bL"/><path d="M30-248c118-7 216 8 213 122C240-48 200 0 122 0H30v-248zM63-27c89 8 146-16 146-99s-60-101-146-95v194" id="bM"/><g id="p"><use transform="matrix(0.05617283950617281,0,0,0.05617283950617281,0,0)" xlink:href="#bL"/><use transform="matrix(0.05617283950617281,0,0,0.05617283950617281,15.728395061728387,0)" xlink:href="#bM"/><use transform="matrix(0.05617283950617281,0,0,0.05617283950617281,30.277160493827143,0)" xlink:href="#bH"/></g><path fill="#333" d="M63-220v92h138v28H63V0H30v-248h175v28H63" id="bN"/><path fill="#333" d="M100-194c62-1 85 37 85 99 1 63-27 99-86 99S16-35 15-95c0-66 28-99 85-99zM99-20c44 1 53-31 53-75 0-43-8-75-51-75s-53 32-53 75 10 74 51 75" id="bO"/><path fill="#333" d="M210-169c-67 3-38 105-44 169h-31v-121c0-29-5-50-35-48C34-165 62-65 56 0H25l-1-190h30c1 10-1 24 2 32 10-44 99-50 107 0 11-21 27-35 58-36 85-2 47 119 55 194h-31v-121c0-29-5-49-35-48" id="bP"/><g id="q"><use transform="matrix(0.05,0,0,0.05,0,0)" xlink:href="#bN"/><use transform="matrix(0.05,0,0,0.05,10.950000000000001,0)" xlink:href="#bO"/><use transform="matrix(0.05,0,0,0.05,20.950000000000003,0)" xlink:href="#aT"/><use transform="matrix(0.05,0,0,0.05,26.900000000000002,0)" xlink:href="#aV"/><use transform="matrix(0.05,0,0,0.05,31.900000000000002,0)" xlink:href="#aX"/><use transform="matrix(0.05,0,0,0.05,41.900000000000006,0)" xlink:href="#aO"/><use transform="matrix(0.05,0,0,0.05,45.85000000000001,0)" xlink:href="#aR"/><use transform="matrix(0.05,0,0,0.05,55.85,0)" xlink:href="#aW"/><use transform="matrix(0.05,0,0,0.05,64.85000000000001,0)" xlink:href="#aP"/><use transform="matrix(0.05,0,0,0.05,68.80000000000001,0)" xlink:href="#bP"/><use transform="matrix(0.05,0,0,0.05,83.75000000000001,0)" xlink:href="#aR"/><use transform="matrix(0.05,0,0,0.05,93.75000000000001,0)" xlink:href="#aM"/><use transform="matrix(0.05,0,0,0.05,103.75,0)" xlink:href="#aV"/><use transform="matrix(0.05,0,0,0.05,108.75,0)" xlink:href="#bO"/></g><path fill="#333" d="M85-194c31 0 48 13 60 33l-1-100h32l1 261h-30c-2-10 0-23-3-31C134-8 116 4 85 4 32 4 16-35 15-94c0-66 23-100 70-100zm9 24c-40 0-46 34-46 75 0 40 6 74 45 74 42 0 51-32 51-76 0-42-9-74-50-73" id="bQ"/><g id="r"><use transform="matrix(0.05,0,0,0.05,0,0)" xlink:href="#bQ"/><use transform="matrix(0.05,0,0,0.05,10,0)" xlink:href="#aR"/></g><path fill="#333" d="M115-194c55 1 70 41 70 98S169 2 115 4C84 4 66-9 55-30l1 105H24l-1-265h31l2 30c10-21 28-34 59-34zm-8 174c40 0 45-34 45-75s-6-73-45-74c-42 0-51 32-51 76 0 43 10 73 51 73" id="bR"/><path fill="#333" d="M100-194c63 0 86 42 84 106H49c0 40 14 67 53 68 26 1 43-12 49-29l28 8c-11 28-37 45-77 45C44 4 14-33 15-96c1-61 26-98 85-98zm52 81c6-60-76-77-97-28-3 7-6 17-6 28h103zm-32-149c12 18 30 30 39 51-31 2-38-20-57-30-20 10-27 32-59 30 9-22 29-33 41-51h36" id="bS"/><g id="s"><use transform="matrix(0.05,0,0,0.05,0,0)" xlink:href="#aW"/><use transform="matrix(0.05,0,0,0.05,9,0)" xlink:href="#bO"/><use transform="matrix(0.05,0,0,0.05,19,0)" xlink:href="#bP"/><use transform="matrix(0.05,0,0,0.05,33.95,0)" xlink:href="#bR"/><use transform="matrix(0.05,0,0,0.05,43.95,0)" xlink:href="#aR"/><use transform="matrix(0.05,0,0,0.05,53.95,0)" xlink:href="#aV"/><use transform="matrix(0.05,0,0,0.05,58.95,0)" xlink:href="#bS"/><use transform="matrix(0.05,0,0,0.05,68.95,0)" xlink:href="#aM"/><use transform="matrix(0.05,0,0,0.05,78.95,0)" xlink:href="#aW"/><use transform="matrix(0.05,0,0,0.05,87.95,0)" xlink:href="#aP"/><use transform="matrix(0.05,0,0,0.05,91.9,0)" xlink:href="#aX"/><use transform="matrix(0.05,0,0,0.05,101.9,0)" xlink:href="#aQ"/></g><path fill="#333" d="M140-251c81 0 123 46 123 126C263-46 219 4 140 4 59 4 17-45 17-125s42-126 123-126zm0 227c63 0 89-41 89-101s-29-99-89-99c-61 0-89 39-89 99S79-25 140-24" id="bT"/><g id="t"><use transform="matrix(0.056172839506172814,0,0,0.056172839506172814,0,0)" xlink:href="#bT"/><use transform="matrix(0.056172839506172814,0,0,0.056172839506172814,15.728395061728389,0)" xlink:href="#aQ"/></g><g id="u"><use transform="matrix(0.056172839506172814,0,0,0.056172839506172814,0,0)" xlink:href="#bQ"/><use transform="matrix(0.056172839506172814,0,0,0.056172839506172814,11.234567901234563,0)" xlink:href="#aX"/><use transform="matrix(0.056172839506172814,0,0,0.056172839506172814,22.469135802469125,0)" xlink:href="#bQ"/><use transform="matrix(0.056172839506172814,0,0,0.056172839506172814,33.70370370370369,0)" xlink:href="#bO"/><use transform="matrix(0.056172839506172814,0,0,0.056172839506172814,44.93827160493825,0)" xlink:href="#aQ"/></g><g id="v"><use transform="matrix(0.056172839506172814,0,0,0.056172839506172814,0,0)" xlink:href="#bQ"/><use transform="matrix(0.056172839506172814,0,0,0.056172839506172814,11.234567901234563,0)" xlink:href="#bO"/><use transform="matrix(0.056172839506172814,0,0,0.056172839506172814,22.469135802469125,0)" xlink:href="#aQ"/></g><g id="w"><use transform="matrix(0.056172839506172814,0,0,0.056172839506172814,0,0)" xlink:href="#aV"/><use transform="matrix(0.056172839506172814,0,0,0.056172839506172814,5.617283950617281,0)" xlink:href="#aR"/><use transform="matrix(0.056172839506172814,0,0,0.056172839506172814,16.851851851851844,0)" xlink:href="#bP"/><use transform="matrix(0.056172839506172814,0,0,0.056172839506172814,33.64753086419752,0)" xlink:href="#aX"/><use transform="matrix(0.056172839506172814,0,0,0.056172839506172814,44.88209876543208,0)" xlink:href="#aQ"/></g><path fill="#333" d="M177-190C167-65 218 103 67 71c-23-6-38-20-44-43l32-5c15 47 100 32 89-28v-30C133-14 115 1 83 1 29 1 15-40 15-95c0-56 16-97 71-98 29-1 48 16 59 35 1-10 0-23 2-32h30zM94-22c36 0 50-32 50-73 0-42-14-75-50-75-39 0-46 34-46 75s6 73 46 73" id="bU"/><g id="x"><use transform="matrix(0.056172839506172814,0,0,0.056172839506172814,0,0)" xlink:href="#aO"/><use transform="matrix(0.056172839506172814,0,0,0.056172839506172814,4.437654320987653,0)" xlink:href="#aP"/><use transform="matrix(0.056172839506172814,0,0,0.056172839506172814,8.875308641975305,0)" xlink:href="#bU"/><use transform="matrix(0.056172839506172814,0,0,0.056172839506172814,20.109876543209868,0)" xlink:href="#aX"/><use transform="matrix(0.056172839506172814,0,0,0.056172839506172814,31.34444444444443,0)" xlink:href="#bQ"/><use transform="matrix(0.056172839506172814,0,0,0.056172839506172814,42.57901234567899,0)" xlink:href="#bO"/><use transform="matrix(0.056172839506172814,0,0,0.056172839506172814,53.81358024691355,0)" xlink:href="#aQ"/></g><g id="y"><use transform="matrix(0.056172839506172814,0,0,0.056172839506172814,0,0)" xlink:href="#aX"/><use transform="matrix(0.056172839506172814,0,0,0.056172839506172814,11.234567901234563,0)" xlink:href="#bO"/><use transform="matrix(0.056172839506172814,0,0,0.056172839506172814,22.469135802469125,0)" xlink:href="#aQ"/></g><g id="z"><use transform="matrix(0.056172839506172814,0,0,0.056172839506172814,0,0)" xlink:href="#aR"/><use transform="matrix(0.056172839506172814,0,0,0.056172839506172814,11.234567901234563,0)" xlink:href="#aM"/><use transform="matrix(0.056172839506172814,0,0,0.056172839506172814,22.469135802469125,0)" xlink:href="#aW"/><use transform="matrix(0.056172839506172814,0,0,0.056172839506172814,32.58024691358023,0)" xlink:href="#bO"/><use transform="matrix(0.056172839506172814,0,0,0.056172839506172814,43.814814814814795,0)" xlink:href="#aM"/><use transform="matrix(0.056172839506172814,0,0,0.056172839506172814,55.04938271604936,0)" xlink:href="#aV"/><use transform="matrix(0.056172839506172814,0,0,0.056172839506172814,60.666666666666636,0)" xlink:href="#aT"/><use transform="matrix(0.056172839506172814,0,0,0.056172839506172814,67.3512345679012,0)" xlink:href="#bO"/><use transform="matrix(0.056172839506172814,0,0,0.056172839506172814,78.58580246913576,0)" xlink:href="#aQ"/></g><g id="A"><use transform="matrix(0.056172839506172814,0,0,0.056172839506172814,0,0)" xlink:href="#bR"/><use transform="matrix(0.056172839506172814,0,0,0.056172839506172814,11.234567901234563,0)" xlink:href="#aR"/><use transform="matrix(0.056172839506172814,0,0,0.056172839506172814,22.469135802469125,0)" xlink:href="#aT"/><use transform="matrix(0.056172839506172814,0,0,0.056172839506172814,29.15370370370369,0)" xlink:href="#bP"/><use transform="matrix(0.056172839506172814,0,0,0.056172839506172814,45.949382716049364,0)" xlink:href="#aR"/><use transform="matrix(0.056172839506172814,0,0,0.056172839506172814,57.18395061728393,0)" xlink:href="#aP"/><use transform="matrix(0.056172839506172814,0,0,0.056172839506172814,61.621604938271574,0)" xlink:href="#aX"/><use transform="matrix(0.056172839506172814,0,0,0.056172839506172814,72.85617283950614,0)" xlink:href="#bP"/></g><use transform="matrix(0.056172839506172814,0,0,0.056172839506172814,0,0)" xlink:href="#aX" id="B"/><g id="C"><use transform="matrix(0.056172839506172814,0,0,0.056172839506172814,0,0)" xlink:href="#aT"/><use transform="matrix(0.056172839506172814,0,0,0.056172839506172814,6.684567901234565,0)" xlink:href="#aR"/><use transform="matrix(0.056172839506172814,0,0,0.056172839506172814,17.91913580246913,0)" xlink:href="#aX"/><use transform="matrix(0.056172839506172814,0,0,0.056172839506172814,29.15370370370369,0)" xlink:href="#aO"/><use transform="matrix(0.056172839506172814,0,0,0.056172839506172814,33.591358024691345,0)" xlink:href="#aP"/><use transform="matrix(0.056172839506172814,0,0,0.056172839506172814,38.029012345679,0)" xlink:href="#bQ"/><use transform="matrix(0.056172839506172814,0,0,0.056172839506172814,49.26358024691356,0)" xlink:href="#aX"/><use transform="matrix(0.056172839506172814,0,0,0.056172839506172814,60.49814814814812,0)" xlink:href="#bQ"/><use transform="matrix(0.056172839506172814,0,0,0.056172839506172814,71.73271604938269,0)" xlink:href="#aR"/></g><g id="D"><use transform="matrix(0.056172839506172814,0,0,0.056172839506172814,0,0)" xlink:href="#bQ"/><use transform="matrix(0.056172839506172814,0,0,0.056172839506172814,11.234567901234563,0)" xlink:href="#bO"/><use transform="matrix(0.056172839506172814,0,0,0.056172839506172814,22.469135802469125,0)" xlink:href="#aQ"/></g><path fill="#333" d="M84 4C-5 8 30-112 23-190h32v120c0 31 7 50 39 49 72-2 45-101 50-169h31l1 190h-30c-1-10 1-25-2-33-11 22-28 36-60 37" id="bV"/><g id="E"><use transform="matrix(0.056172839506172814,0,0,0.056172839506172814,0,0)" xlink:href="#aR"/><use transform="matrix(0.056172839506172814,0,0,0.056172839506172814,11.234567901234563,0)" xlink:href="#aQ"/><use transform="matrix(0.056172839506172814,0,0,0.056172839506172814,21.34567901234567,0)" xlink:href="#aV"/><use transform="matrix(0.056172839506172814,0,0,0.056172839506172814,26.96296296296295,0)" xlink:href="#bV"/><use transform="matrix(0.056172839506172814,0,0,0.056172839506172814,38.19753086419752,0)" xlink:href="#bQ"/><use transform="matrix(0.056172839506172814,0,0,0.056172839506172814,49.43209876543208,0)" xlink:href="#aX"/><use transform="matrix(0.056172839506172814,0,0,0.056172839506172814,60.666666666666636,0)" xlink:href="#aM"/><use transform="matrix(0.056172839506172814,0,0,0.056172839506172814,71.90123456790121,0)" xlink:href="#aV"/><use transform="matrix(0.056172839506172814,0,0,0.056172839506172814,77.51851851851849,0)" xlink:href="#aR"/><use transform="matrix(0.056172839506172814,0,0,0.056172839506172814,88.75308641975306,0)" xlink:href="#aQ"/></g><path fill="#333" d="M68-38c1 34 0 65-14 84H32c9-13 17-26 17-46H33v-38h35" id="bW"/><use transform="matrix(0.056172839506172814,0,0,0.056172839506172814,0,0)" xlink:href="#bW" id="F"/><g id="G"><use transform="matrix(0.056172839506172814,0,0,0.056172839506172814,0,0)" xlink:href="#bQ"/><use transform="matrix(0.056172839506172814,0,0,0.056172839506172814,11.234567901234563,0)" xlink:href="#aR"/><use transform="matrix(0.056172839506172814,0,0,0.056172839506172814,22.469135802469125,0)" xlink:href="#aQ"/><use transform="matrix(0.056172839506172814,0,0,0.056172839506172814,32.58024691358023,0)" xlink:href="#bQ"/><use transform="matrix(0.056172839506172814,0,0,0.056172839506172814,43.814814814814795,0)" xlink:href="#aR"/></g><use transform="matrix(0.056172839506172814,0,0,0.056172839506172814,0,0)" xlink:href="#aX" id="H"/><path fill="#333" d="M141 0L90-78 38 0H4l68-98-65-92h35l48 74 47-74h35l-64 92 68 98h-35" id="bX"/><path fill="#333" d="M9 0v-24l116-142H16v-24h144v24L44-24h123V0H9" id="bY"/><path fill="#333" d="M96-169c-40 0-48 33-48 73s9 75 48 75c24 0 41-14 43-38l32 2c-6 37-31 61-74 61-59 0-76-41-82-99-10-93 101-131 147-64 4 7 5 14 7 22l-32 3c-4-21-16-35-41-35zm3 187c19-1 33 8 33 26 0 31-30 33-64 32V58c18 2 39 4 41-13 1-15-18-13-34-13L87 0h19" id="bZ"/><path fill="#333" d="M141-36C126-15 110 5 73 4 37 3 15-17 15-53c-1-64 63-63 125-63 3-35-9-54-41-54-24 1-41 7-42 31l-33-3c5-37 33-52 76-52 45 0 72 20 72 64v82c-1 20 7 32 28 27v20c-31 9-61-2-59-35zM48-53c0 20 12 33 32 33 41-3 63-29 60-74-43 2-92-5-92 41zm117-205c-3 23-9 48-36 47-26-1-65-44-74 0H39c4-23 8-48 36-47s64 44 74 0h16" id="ca"/><g id="I"><use transform="matrix(0.056172839506172814,0,0,0.056172839506172814,0,0)" xlink:href="#aW"/><use transform="matrix(0.056172839506172814,0,0,0.056172839506172814,10.111111111111107,0)" xlink:href="#bO"/><use transform="matrix(0.056172839506172814,0,0,0.056172839506172814,21.34567901234567,0)" xlink:href="#aM"/><use transform="matrix(0.056172839506172814,0,0,0.056172839506172814,32.58024691358023,0)" xlink:href="#aV"/><use transform="matrix(0.056172839506172814,0,0,0.056172839506172814,38.19753086419752,0)" xlink:href="#aR"/><use transform="matrix(0.056172839506172814,0,0,0.056172839506172814,49.43209876543208,0)" xlink:href="#bX"/><use transform="matrix(0.056172839506172814,0,0,0.056172839506172814,59.54320987654318,0)" xlink:href="#aV"/><use transform="matrix(0.056172839506172814,0,0,0.056172839506172814,65.16049382716047,0)" xlink:href="#bV"/><use transform="matrix(0.056172839506172814,0,0,0.056172839506172814,76.39506172839504,0)" xlink:href="#aX"/><use transform="matrix(0.056172839506172814,0,0,0.056172839506172814,87.62962962962959,0)" xlink:href="#aO"/><use transform="matrix(0.056172839506172814,0,0,0.056172839506172814,92.06728395061724,0)" xlink:href="#aP"/><use transform="matrix(0.056172839506172814,0,0,0.056172839506172814,96.50493827160489,0)" xlink:href="#bY"/><use transform="matrix(0.056172839506172814,0,0,0.056172839506172814,106.616049382716,0)" xlink:href="#aX"/><use transform="matrix(0.056172839506172814,0,0,0.056172839506172814,117.85061728395057,0)" xlink:href="#bZ"/><use transform="matrix(0.056172839506172814,0,0,0.056172839506172814,127.96172839506167,0)" xlink:href="#ca"/><use transform="matrix(0.056172839506172814,0,0,0.056172839506172814,139.19629629629623,0)" xlink:href="#bO"/></g><g id="J"><use transform="matrix(0.056172839506172814,0,0,0.056172839506172814,0,0)" xlink:href="#aV"/><use transform="matrix(0.056172839506172814,0,0,0.056172839506172814,5.617283950617281,0)" xlink:href="#aR"/><use transform="matrix(0.056172839506172814,0,0,0.056172839506172814,16.851851851851844,0)" xlink:href="#bP"/><use transform="matrix(0.056172839506172814,0,0,0.056172839506172814,33.64753086419752,0)" xlink:href="#aN"/><use transform="matrix(0.056172839506172814,0,0,0.056172839506172814,44.88209876543208,0)" xlink:href="#aV"/><use transform="matrix(0.056172839506172814,0,0,0.056172839506172814,50.49938271604937,0)" xlink:href="#aP"/><use transform="matrix(0.056172839506172814,0,0,0.056172839506172814,54.93703703703702,0)" xlink:href="#aW"/><use transform="matrix(0.056172839506172814,0,0,0.056172839506172814,65.04814814814813,0)" xlink:href="#aX"/></g><path fill="#333" d="M100-194c63 0 86 42 84 106H49c0 40 14 67 53 68 26 1 43-12 49-29l28 8c-11 28-37 45-77 45C44 4 14-33 15-96c1-61 26-98 85-98zm52 81c6-60-76-77-97-28-3 7-6 17-6 28h103zm-74-98c8-23 27-35 38-54h36v5l-58 49H78" id="cb"/><g id="K"><use transform="matrix(0.056172839506172814,0,0,0.056172839506172814,0,0)" xlink:href="#aX"/><use transform="matrix(0.056172839506172814,0,0,0.056172839506172814,11.234567901234563,0)" xlink:href="#aV"/><use transform="matrix(0.056172839506172814,0,0,0.056172839506172814,16.851851851851844,0)" xlink:href="#cb"/></g><use transform="matrix(0.056172839506172814,0,0,0.056172839506172814,0,0)" xlink:href="#bO" id="L"/><path fill="#333" d="M108 0H70L1-190h34L89-25l56-165h34" id="cc"/><g id="M"><use transform="matrix(0.056172839506172814,0,0,0.056172839506172814,0,0)" xlink:href="#bQ"/><use transform="matrix(0.056172839506172814,0,0,0.056172839506172814,11.234567901234563,0)" xlink:href="#aR"/><use transform="matrix(0.056172839506172814,0,0,0.056172839506172814,22.469135802469125,0)" xlink:href="#aQ"/><use transform="matrix(0.056172839506172814,0,0,0.056172839506172814,32.58024691358023,0)" xlink:href="#aR"/><use transform="matrix(0.056172839506172814,0,0,0.056172839506172814,43.814814814814795,0)" xlink:href="#aM"/><use transform="matrix(0.056172839506172814,0,0,0.056172839506172814,55.04938271604936,0)" xlink:href="#cc"/><use transform="matrix(0.056172839506172814,0,0,0.056172839506172814,65.16049382716047,0)" xlink:href="#bO"/><use transform="matrix(0.056172839506172814,0,0,0.056172839506172814,76.39506172839504,0)" xlink:href="#aO"/><use transform="matrix(0.056172839506172814,0,0,0.056172839506172814,80.83271604938268,0)" xlink:href="#cc"/><use transform="matrix(0.056172839506172814,0,0,0.056172839506172814,90.94382716049378,0)" xlink:href="#aP"/><use transform="matrix(0.056172839506172814,0,0,0.056172839506172814,95.38148148148143,0)" xlink:href="#bP"/><use transform="matrix(0.056172839506172814,0,0,0.056172839506172814,112.1771604938271,0)" xlink:href="#aR"/><use transform="matrix(0.056172839506172814,0,0,0.056172839506172814,123.41172839506164,0)" xlink:href="#aM"/><use transform="matrix(0.056172839506172814,0,0,0.056172839506172814,134.6462962962962,0)" xlink:href="#aV"/><use transform="matrix(0.056172839506172814,0,0,0.056172839506172814,140.2635802469135,0)" xlink:href="#bO"/></g><g id="N"><use transform="matrix(0.056172839506172814,0,0,0.056172839506172814,0,0)" xlink:href="#bQ"/><use transform="matrix(0.056172839506172814,0,0,0.056172839506172814,11.234567901234563,0)" xlink:href="#aR"/></g><g id="O"><use transform="matrix(0.056172839506172814,0,0,0.056172839506172814,0,0)" xlink:href="#aX"/><use transform="matrix(0.056172839506172814,0,0,0.056172839506172814,11.234567901234563,0)" xlink:href="#aQ"/><use transform="matrix(0.056172839506172814,0,0,0.056172839506172814,21.34567901234567,0)" xlink:href="#bR"/><use transform="matrix(0.056172839506172814,0,0,0.056172839506172814,32.58024691358023,0)" xlink:href="#aR"/><use transform="matrix(0.056172839506172814,0,0,0.056172839506172814,43.814814814814795,0)" xlink:href="#aW"/><use transform="matrix(0.056172839506172814,0,0,0.056172839506172814,53.9259259259259,0)" xlink:href="#aV"/><use transform="matrix(0.056172839506172814,0,0,0.056172839506172814,59.54320987654318,0)" xlink:href="#bO"/><use transform="matrix(0.056172839506172814,0,0,0.056172839506172814,70.77777777777774,0)" xlink:href="#aQ"/></g><g id="P"><use transform="matrix(0.056172839506172814,0,0,0.056172839506172814,0,0)" xlink:href="#aX"/><use transform="matrix(0.056172839506172814,0,0,0.056172839506172814,11.234567901234563,0)" xlink:href="#bO"/></g><g id="Q"><use transform="matrix(0.056172839506172814,0,0,0.056172839506172814,0,0)" xlink:href="#aW"/><use transform="matrix(0.056172839506172814,0,0,0.056172839506172814,10.111111111111107,0)" xlink:href="#aX"/><use transform="matrix(0.056172839506172814,0,0,0.056172839506172814,21.34567901234567,0)" xlink:href="#bP"/><use transform="matrix(0.056172839506172814,0,0,0.056172839506172814,38.14135802469134,0)" xlink:href="#bR"/><use transform="matrix(0.056172839506172814,0,0,0.056172839506172814,49.375925925925905,0)" xlink:href="#bO"/></g><g id="R"><use transform="matrix(0.056172839506172814,0,0,0.056172839506172814,0,0)" xlink:href="#aW"/><use transform="matrix(0.056172839506172814,0,0,0.056172839506172814,10.111111111111107,0)" xlink:href="#bO"/><use transform="matrix(0.056172839506172814,0,0,0.056172839506172814,21.34567901234567,0)" xlink:href="#bU"/><use transform="matrix(0.056172839506172814,0,0,0.056172839506172814,32.58024691358023,0)" xlink:href="#aM"/><use transform="matrix(0.056172839506172814,0,0,0.056172839506172814,43.814814814814795,0)" xlink:href="#aP"/><use transform="matrix(0.056172839506172814,0,0,0.056172839506172814,48.25246913580245,0)" xlink:href="#aV"/><use transform="matrix(0.056172839506172814,0,0,0.056172839506172814,53.869753086419735,0)" xlink:href="#aP"/><use transform="matrix(0.056172839506172814,0,0,0.056172839506172814,58.307407407407396,0)" xlink:href="#cc"/><use transform="matrix(0.056172839506172814,0,0,0.056172839506172814,68.4185185185185,0)" xlink:href="#bO"/></g><g id="S"><use transform="matrix(0.056172839506172814,0,0,0.056172839506172814,0,0)" xlink:href="#bR"/><use transform="matrix(0.056172839506172814,0,0,0.056172839506172814,11.234567901234563,0)" xlink:href="#aR"/><use transform="matrix(0.056172839506172814,0,0,0.056172839506172814,22.469135802469125,0)" xlink:href="#aO"/><use transform="matrix(0.056172839506172814,0,0,0.056172839506172814,26.90679012345678,0)" xlink:href="#bO"/></g><path fill="#333" d="M85 4C-4 8 31-112 24-190h32v120c0 31 7 50 39 49 72-2 45-101 50-169h31l1 190h-30c-1-10 1-25-2-33-11 22-28 36-60 37zM73-211c8-23 27-35 38-54h36v5l-58 49H73" id="cd"/><g id="T"><use transform="matrix(0.056172839506172814,0,0,0.056172839506172814,0,0)" xlink:href="#aW"/><use transform="matrix(0.056172839506172814,0,0,0.056172839506172814,10.111111111111107,0)" xlink:href="#bO"/><use transform="matrix(0.056172839506172814,0,0,0.056172839506172814,21.34567901234567,0)" xlink:href="#aM"/><use transform="matrix(0.056172839506172814,0,0,0.056172839506172814,32.58024691358023,0)" xlink:href="#aV"/><use transform="matrix(0.056172839506172814,0,0,0.056172839506172814,38.19753086419752,0)" xlink:href="#aR"/><use transform="matrix(0.056172839506172814,0,0,0.056172839506172814,49.43209876543208,0)" xlink:href="#cd"/><use transform="matrix(0.056172839506172814,0,0,0.056172839506172814,60.666666666666636,0)" xlink:href="#bQ"/><use transform="matrix(0.056172839506172814,0,0,0.056172839506172814,71.90123456790121,0)" xlink:href="#bO"/></g><g id="U"><use transform="matrix(0.056172839506172814,0,0,0.056172839506172814,0,0)" xlink:href="#bQ"/><use transform="matrix(0.056172839506172814,0,0,0.056172839506172814,11.234567901234563,0)" xlink:href="#aR"/></g><g id="V"><use transform="matrix(0.056172839506172814,0,0,0.056172839506172814,0,0)" xlink:href="#aS"/><use transform="matrix(0.056172839506172814,0,0,0.056172839506172814,14.548765432098758,0)" xlink:href="#aP"/><use transform="matrix(0.056172839506172814,0,0,0.056172839506172814,18.98641975308641,0)" xlink:href="#bS"/><use transform="matrix(0.056172839506172814,0,0,0.056172839506172814,30.220987654320975,0)" xlink:href="#aM"/><use transform="matrix(0.056172839506172814,0,0,0.056172839506172814,41.455555555555534,0)" xlink:href="#aW"/><use transform="matrix(0.056172839506172814,0,0,0.056172839506172814,51.56666666666664,0)" xlink:href="#aP"/><use transform="matrix(0.056172839506172814,0,0,0.056172839506172814,56.004320987654296,0)" xlink:href="#aX"/></g><path fill="#333" d="M30-248c118-7 216 8 213 122C240-48 200 0 122 0H30v-248zM63-27c89 8 146-16 146-99s-60-101-146-95v194" id="ce"/><path fill="#333" d="M33 0v-38h34V0H33" id="cf"/><g id="W"><use transform="matrix(0.056172839506172814,0,0,0.056172839506172814,0,0)" xlink:href="#ce"/><use transform="matrix(0.056172839506172814,0,0,0.056172839506172814,14.548765432098758,0)" xlink:href="#aX"/><use transform="matrix(0.056172839506172814,0,0,0.056172839506172814,25.78333333333332,0)" xlink:href="#bQ"/><use transform="matrix(0.056172839506172814,0,0,0.056172839506172814,37.01790123456789,0)" xlink:href="#bO"/><use transform="matrix(0.056172839506172814,0,0,0.056172839506172814,48.25246913580245,0)" xlink:href="#aQ"/><use transform="matrix(0.056172839506172814,0,0,0.056172839506172814,58.36358024691356,0)" xlink:href="#cf"/></g><g id="Y"><use transform="matrix(0.056172839506172835,0,0,0.056172839506172835,0,0)" xlink:href="#aT"/><use transform="matrix(0.056172839506172835,0,0,0.056172839506172835,6.684567901234567,0)" xlink:href="#aR"/><use transform="matrix(0.056172839506172835,0,0,0.056172839506172835,17.919135802469135,0)" xlink:href="#bR"/><use transform="matrix(0.056172839506172835,0,0,0.056172839506172835,29.1537037037037,0)" xlink:href="#bO"/><use transform="matrix(0.056172839506172835,0,0,0.056172839506172835,40.38827160493827,0)" xlink:href="#aT"/><use transform="matrix(0.056172839506172835,0,0,0.056172839506172835,47.07283950617283,0)" xlink:href="#aV"/><use transform="matrix(0.056172839506172835,0,0,0.056172839506172835,52.69012345679012,0)" xlink:href="#aX"/><use transform="matrix(0.056172839506172835,0,0,0.056172839506172835,63.92469135802469,0)" xlink:href="#bU"/><use transform="matrix(0.056172839506172835,0,0,0.056172839506172835,75.15925925925926,0)" xlink:href="#aR"/><use transform="matrix(0.056172839506172835,0,0,0.056172839506172835,86.39382716049383,0)" xlink:href="#aM"/><use transform="matrix(0.056172839506172835,0,0,0.056172839506172835,97.6283950617284,0)" xlink:href="#aQ"/><use transform="matrix(0.056172839506172835,0,0,0.056172839506172835,107.73950617283951,0)" xlink:href="#bW"/></g><path fill="#333" d="M24-231v-30h32v30H24zM-9 49c24 4 33-6 33-30v-209h32V24c2 40-23 58-65 49V49" id="cg"/><g id="Z"><use transform="matrix(0.056172839506172835,0,0,0.056172839506172835,0,0)" xlink:href="#cg"/><use transform="matrix(0.056172839506172835,0,0,0.056172839506172835,4.4376543209876536,0)" xlink:href="#bO"/><use transform="matrix(0.056172839506172835,0,0,0.056172839506172835,15.67222222222222,0)" xlink:href="#bU"/><use transform="matrix(0.056172839506172835,0,0,0.056172839506172835,26.906790123456787,0)" xlink:href="#bO"/><use transform="matrix(0.056172839506172835,0,0,0.056172839506172835,38.14135802469136,0)" xlink:href="#aQ"/><use transform="matrix(0.056172839506172835,0,0,0.056172839506172835,48.25246913580247,0)" xlink:href="#bW"/></g><g id="aa"><use transform="matrix(0.056172839506172835,0,0,0.056172839506172835,0,0)" xlink:href="#aM"/><use transform="matrix(0.056172839506172835,0,0,0.056172839506172835,11.234567901234566,0)" xlink:href="#bV"/><use transform="matrix(0.056172839506172835,0,0,0.056172839506172835,22.469135802469133,0)" xlink:href="#cc"/><use transform="matrix(0.056172839506172835,0,0,0.056172839506172835,32.58024691358024,0)" xlink:href="#aR"/><use transform="matrix(0.056172839506172835,0,0,0.056172839506172835,43.81481481481481,0)" xlink:href="#bP"/></g><g id="ab"><use transform="matrix(0.056172839506172835,0,0,0.056172839506172835,0,0)" xlink:href="#bQ"/><use transform="matrix(0.056172839506172835,0,0,0.056172839506172835,11.234567901234566,0)" xlink:href="#aR"/></g><g id="ac"><use transform="matrix(0.056172839506172835,0,0,0.056172839506172835,0,0)" xlink:href="#bR"/><use transform="matrix(0.056172839506172835,0,0,0.056172839506172835,11.234567901234566,0)" xlink:href="#aX"/><use transform="matrix(0.056172839506172835,0,0,0.056172839506172835,22.469135802469133,0)" xlink:href="#aO"/><use transform="matrix(0.056172839506172835,0,0,0.056172839506172835,26.906790123456787,0)" xlink:href="#aX"/><use transform="matrix(0.056172839506172835,0,0,0.056172839506172835,38.14135802469136,0)" xlink:href="#cc"/><use transform="matrix(0.056172839506172835,0,0,0.056172839506172835,48.25246913580247,0)" xlink:href="#aT"/><use transform="matrix(0.056172839506172835,0,0,0.056172839506172835,54.93703703703704,0)" xlink:href="#aX"/><use transform="matrix(0.056172839506172835,0,0,0.056172839506172835,66.1716049382716,0)" xlink:href="#aQ"/></g><path fill="#333" d="M232-93c-1 65-40 97-104 97C67 4 28-28 28-90v-158h33c8 89-33 224 67 224 102 0 64-133 71-224h33v155" id="ch"/><g id="ad"><use transform="matrix(0.05,0,0,0.05,0,0)" xlink:href="#ch"/><use transform="matrix(0.05,0,0,0.05,12.950000000000001,0)" xlink:href="#aQ"/><use transform="matrix(0.05,0,0,0.05,21.950000000000003,0)" xlink:href="#bO"/></g><g id="ae"><use transform="matrix(0.05,0,0,0.05,0,0)" xlink:href="#bQ"/><use transform="matrix(0.05,0,0,0.05,10,0)" xlink:href="#aR"/></g><path fill="#333" d="M115-194c53 0 69 39 70 98 0 66-23 100-70 100C84 3 66-7 56-30L54 0H23l1-261h32v101c10-23 28-34 59-34zm-8 174c40 0 45-34 45-75 0-40-5-75-45-74-42 0-51 32-51 76 0 43 10 73 51 73" id="ci"/><path fill="#333" d="M143 0L79-87 56-68V0H24v-261h32v163l83-92h37l-77 82L181 0h-38" id="cj"/><g id="af"><use transform="matrix(0.05,0,0,0.05,0,0)" xlink:href="#aR"/><use transform="matrix(0.05,0,0,0.05,10,0)" xlink:href="#ci"/><use transform="matrix(0.05,0,0,0.05,20,0)" xlink:href="#bO"/><use transform="matrix(0.05,0,0,0.05,30,0)" xlink:href="#bO"/><use transform="matrix(0.05,0,0,0.05,40,0)" xlink:href="#cj"/><use transform="matrix(0.05,0,0,0.05,49,0)" xlink:href="#aQ"/><use transform="matrix(0.05,0,0,0.05,58,0)" xlink:href="#bW"/></g><g id="ag"><use transform="matrix(0.05,0,0,0.05,0,0)" xlink:href="#aX"/><use transform="matrix(0.05,0,0,0.05,10,0)" xlink:href="#bP"/><use transform="matrix(0.05,0,0,0.05,24.950000000000003,0)" xlink:href="#ci"/><use transform="matrix(0.05,0,0,0.05,34.95,0)" xlink:href="#aP"/><use transform="matrix(0.05,0,0,0.05,38.900000000000006,0)" xlink:href="#aR"/><use transform="matrix(0.05,0,0,0.05,48.900000000000006,0)" xlink:href="#aM"/><use transform="matrix(0.05,0,0,0.05,58.900000000000006,0)" xlink:href="#aV"/><use transform="matrix(0.05,0,0,0.05,63.900000000000006,0)" xlink:href="#aR"/><use transform="matrix(0.05,0,0,0.05,73.9,0)" xlink:href="#aQ"/></g><g id="ah"><use transform="matrix(0.05,0,0,0.05,0,0)" xlink:href="#bP"/><use transform="matrix(0.05,0,0,0.05,14.950000000000001,0)" xlink:href="#aX"/><use transform="matrix(0.05,0,0,0.05,24.950000000000003,0)" xlink:href="#aV"/><use transform="matrix(0.05,0,0,0.05,29.950000000000003,0)" xlink:href="#aR"/><use transform="matrix(0.05,0,0,0.05,39.95,0)" xlink:href="#bP"/><use transform="matrix(0.05,0,0,0.05,54.900000000000006,0)" xlink:href="#aN"/><use transform="matrix(0.05,0,0,0.05,64.9,0)" xlink:href="#aV"/><use transform="matrix(0.05,0,0,0.05,69.9,0)" xlink:href="#aP"/><use transform="matrix(0.05,0,0,0.05,73.85000000000001,0)" xlink:href="#aW"/><use transform="matrix(0.05,0,0,0.05,82.85000000000001,0)" xlink:href="#bO"/><use transform="matrix(0.05,0,0,0.05,92.85000000000001,0)" xlink:href="#aQ"/></g><g id="ai"><use transform="matrix(0.05,0,0,0.05,0,0)" xlink:href="#aO"/><use transform="matrix(0.05,0,0,0.05,3.95,0)" xlink:href="#cd"/><use transform="matrix(0.05,0,0,0.05,13.949999999999998,0)" xlink:href="#bQ"/><use transform="matrix(0.05,0,0,0.05,23.95,0)" xlink:href="#aP"/><use transform="matrix(0.05,0,0,0.05,27.899999999999995,0)" xlink:href="#aW"/><use transform="matrix(0.05,0,0,0.05,36.9,0)" xlink:href="#bO"/><use transform="matrix(0.05,0,0,0.05,46.9,0)" xlink:href="#aQ"/><use transform="matrix(0.05,0,0,0.05,55.900000000000006,0)" xlink:href="#bW"/></g><path fill="#333" d="M101-234c-31-9-42 10-38 44h38v23H63V0H32v-167H5v-23h27c-7-52 17-82 69-68v24" id="ck"/><g id="aj"><use transform="matrix(0.05,0,0,0.05,0,0)" xlink:href="#ck"/><use transform="matrix(0.05,0,0,0.05,5,0)" xlink:href="#aR"/><use transform="matrix(0.05,0,0,0.05,15,0)" xlink:href="#aT"/><use transform="matrix(0.05,0,0,0.05,20.95,0)" xlink:href="#aT"/><use transform="matrix(0.05,0,0,0.05,26.899999999999995,0)" xlink:href="#aX"/><use transform="matrix(0.05,0,0,0.05,36.9,0)" xlink:href="#bP"/><use transform="matrix(0.05,0,0,0.05,51.85,0)" xlink:href="#aR"/><use transform="matrix(0.05,0,0,0.05,61.85,0)" xlink:href="#aM"/><use transform="matrix(0.05,0,0,0.05,71.85,0)" xlink:href="#aV"/><use transform="matrix(0.05,0,0,0.05,76.85,0)" xlink:href="#aX"/><use transform="matrix(0.05,0,0,0.05,86.85,0)" xlink:href="#aQ"/></g><g id="ak"><use transform="matrix(0.05,0,0,0.05,0,0)" xlink:href="#bQ"/><use transform="matrix(0.05,0,0,0.05,10,0)" xlink:href="#aP"/><use transform="matrix(0.05,0,0,0.05,13.949999999999998,0)" xlink:href="#bU"/><use transform="matrix(0.05,0,0,0.05,23.95,0)" xlink:href="#aP"/><use transform="matrix(0.05,0,0,0.05,27.899999999999995,0)" xlink:href="#aV"/><use transform="matrix(0.05,0,0,0.05,32.9,0)" xlink:href="#aX"/><use transform="matrix(0.05,0,0,0.05,42.9,0)" xlink:href="#aP"/><use transform="matrix(0.05,0,0,0.05,46.85,0)" xlink:href="#aQ"/></g><g id="al"><use transform="matrix(0.05,0,0,0.05,0,0)" xlink:href="#aR"/><use transform="matrix(0.05,0,0,0.05,10,0)" xlink:href="#aV"/><use transform="matrix(0.05,0,0,0.05,15,0)" xlink:href="#aW"/><use transform="matrix(0.05,0,0,0.05,24,0)" xlink:href="#cf"/></g><g id="am"><use transform="matrix(0.05,0,0,0.05,0,0)" xlink:href="#aL"/><use transform="matrix(0.05,0,0,0.05,12,0)" xlink:href="#aM"/><use transform="matrix(0.05,0,0,0.05,22,0)" xlink:href="#aN"/><use transform="matrix(0.05,0,0,0.05,32,0)" xlink:href="#aO"/><use transform="matrix(0.05,0,0,0.05,35.95,0)" xlink:href="#aP"/><use transform="matrix(0.05,0,0,0.05,39.900000000000006,0)" xlink:href="#aQ"/><use transform="matrix(0.05,0,0,0.05,48.900000000000006,0)" xlink:href="#aR"/><use transform="matrix(0.05,0,0,0.05,58.900000000000006,0)" xlink:href="#aQ"/></g><g id="an"><use transform="matrix(0.05,0,0,0.05,0,0)" xlink:href="#ci"/><use transform="matrix(0.05,0,0,0.05,10,0)" xlink:href="#aX"/><use transform="matrix(0.05,0,0,0.05,20,0)" xlink:href="#aQ"/><use transform="matrix(0.05,0,0,0.05,29,0)" xlink:href="#aR"/><use transform="matrix(0.05,0,0,0.05,39,0)" xlink:href="#aX"/><use transform="matrix(0.05,0,0,0.05,49,0)" xlink:href="#bQ"/><use transform="matrix(0.05,0,0,0.05,59,0)" xlink:href="#aX"/></g><g id="ao"><use transform="matrix(0.05,0,0,0.05,0,0)" xlink:href="#aM"/><use transform="matrix(0.05,0,0,0.05,10,0)" xlink:href="#aX"/><use transform="matrix(0.05,0,0,0.05,20,0)" xlink:href="#aQ"/></g><g id="ap"><use transform="matrix(0.05,0,0,0.05,0,0)" xlink:href="#aM"/><use transform="matrix(0.05,0,0,0.05,10,0)" xlink:href="#bO"/><use transform="matrix(0.05,0,0,0.05,20,0)" xlink:href="#cc"/><use transform="matrix(0.05,0,0,0.05,29,0)" xlink:href="#aX"/><use transform="matrix(0.05,0,0,0.05,39,0)" xlink:href="#aQ"/></g><path fill="#333" d="M106-169C34-169 62-67 57 0H25v-261h32l-1 103c12-21 28-36 61-36 89 0 53 116 60 194h-32v-121c2-32-8-49-39-48" id="cl"/><g id="aq"><use transform="matrix(0.05,0,0,0.05,0,0)" xlink:href="#cl"/><use transform="matrix(0.05,0,0,0.05,10,0)" xlink:href="#aX"/><use transform="matrix(0.05,0,0,0.05,20,0)" xlink:href="#ci"/><use transform="matrix(0.05,0,0,0.05,30,0)" xlink:href="#aP"/><use transform="matrix(0.05,0,0,0.05,33.95,0)" xlink:href="#aO"/><use transform="matrix(0.05,0,0,0.05,37.900000000000006,0)" xlink:href="#aP"/><use transform="matrix(0.05,0,0,0.05,41.85000000000001,0)" xlink:href="#bQ"/><use transform="matrix(0.05,0,0,0.05,51.85,0)" xlink:href="#aX"/><use transform="matrix(0.05,0,0,0.05,61.85,0)" xlink:href="#bQ"/><use transform="matrix(0.05,0,0,0.05,71.85000000000001,0)" xlink:href="#aR"/><use transform="matrix(0.05,0,0,0.05,81.85000000000001,0)" xlink:href="#aQ"/></g><g id="ar"><use transform="matrix(0.05,0,0,0.05,0,0)" xlink:href="#aW"/><use transform="matrix(0.05,0,0,0.05,9,0)" xlink:href="#bO"/><use transform="matrix(0.05,0,0,0.05,19,0)" xlink:href="#aM"/><use transform="matrix(0.05,0,0,0.05,29,0)" xlink:href="#cg"/><use transform="matrix(0.05,0,0,0.05,32.95,0)" xlink:href="#bV"/><use transform="matrix(0.05,0,0,0.05,42.95,0)" xlink:href="#bU"/><use transform="matrix(0.05,0,0,0.05,52.95,0)" xlink:href="#aX"/><use transform="matrix(0.05,0,0,0.05,62.95,0)" xlink:href="#bQ"/><use transform="matrix(0.05,0,0,0.05,72.95,0)" xlink:href="#aX"/></g><g id="as"><use transform="matrix(0.05,0,0,0.05,0,0)" xlink:href="#aW"/><use transform="matrix(0.05,0,0,0.05,9,0)" xlink:href="#bO"/><use transform="matrix(0.05,0,0,0.05,19,0)" xlink:href="#bP"/></g><use transform="matrix(0.05,0,0,0.05,0,0)" xlink:href="#aX" id="at"/><g id="au"><use transform="matrix(0.05,0,0,0.05,0,0)" xlink:href="#cc"/><use transform="matrix(0.05,0,0,0.05,9,0)" xlink:href="#aP"/><use transform="matrix(0.05,0,0,0.05,12.949999999999998,0)" xlink:href="#cc"/><use transform="matrix(0.05,0,0,0.05,21.95,0)" xlink:href="#bS"/><use transform="matrix(0.05,0,0,0.05,31.950000000000003,0)" xlink:href="#aM"/><use transform="matrix(0.05,0,0,0.05,41.95,0)" xlink:href="#aW"/><use transform="matrix(0.05,0,0,0.05,50.95,0)" xlink:href="#aP"/><use transform="matrix(0.05,0,0,0.05,54.900000000000006,0)" xlink:href="#aX"/></g><g id="av"><use transform="matrix(0.05,0,0,0.05,0,0)" xlink:href="#aO"/><use transform="matrix(0.05,0,0,0.05,3.95,0)" xlink:href="#bO"/><use transform="matrix(0.05,0,0,0.05,13.949999999999998,0)" xlink:href="#aW"/><use transform="matrix(0.05,0,0,0.05,22.95,0)" xlink:href="#aX"/><use transform="matrix(0.05,0,0,0.05,32.95,0)" xlink:href="#aO"/></g><g id="aw"><use transform="matrix(0.05,0,0,0.05,0,0)" xlink:href="#bO"/><use transform="matrix(0.05,0,0,0.05,10,0)" xlink:href="#bV"/></g><g id="ax"><use transform="matrix(0.05,0,0,0.05,0,0)" xlink:href="#bR"/><use transform="matrix(0.05,0,0,0.05,10,0)" xlink:href="#aR"/><use transform="matrix(0.05,0,0,0.05,20,0)" xlink:href="#aQ"/><use transform="matrix(0.05,0,0,0.05,29,0)" xlink:href="#aQ"/><use transform="matrix(0.05,0,0,0.05,38,0)" xlink:href="#bO"/><use transform="matrix(0.05,0,0,0.05,48,0)" xlink:href="#aX"/><use transform="matrix(0.05,0,0,0.05,58,0)" xlink:href="#aO"/><use transform="matrix(0.05,0,0,0.05,61.95,0)" xlink:href="#cf"/></g></defs></g></svg>